<?xml version="1.0" encoding="UTF-8"?>
<svg id="Layer_1" xmlns="http://www.w3.org/2000/svg" viewBox="0 0 346.5 328.47">
  <defs>
    <style>
      .cls-1 {
        fill: #f4a7b9;
      }

      .cls-2 {
        fill: tan;
      }
    </style>
  </defs>
  <path class="cls-2" d="M146.48,177.87c5.33,5.87,12,7.31,17.69,6.77-5.06,5.59-10.86,12.15-16.82,18.55-4.95,5.31-10.36,10.22-15.11,15.69-16.05,18.47-36.93,11.03-48.51-.67-5.49-5.54-9.74-11.78-10.91-19.75-1.02-7.01-.07-13.67,4.58-19.12,4.83-5.67,10.17-10.9,15.37-16.25,9.02-9.27,18.09-18.48,27.14-27.71.26.15.52.3.77.45.05.6.24,1.23.13,1.79-1.61,7.84,1.08,14.27,6.39,19.87,6.43,6.78,12.99,13.46,19.28,20.38ZM134.92,193.83c.24-2.02-2.43-4.37-4.81-4.45-2-.06-3.75,1.71-3.76,3.81-.02,2.59,1.41,3.97,4.45,3.97,2.02.08,3.8-.77,4.12-3.33ZM129.94,176.21c2-.06,3.13-1.17,3.07-3.22-.05-1.85-.89-3.02-3.68-3.38-.8,1.2-2.08,2.34-2.28,3.63-.26,1.7.92,3.04,2.89,2.97ZM120.84,207.93c2.23-.07,4.48-2.33,4.37-4.4-.11-2.01-2.46-3.73-5.42-3.66-1.62.37-3.66.86-3.66,3.44-.01,2.83,2.02,4.7,4.71,4.62ZM124.62,183.17c.09-2.51-2.27-4.81-4.69-4.82-2.28,0-4.19,1.94-4.13,4.17.06,2.08,1.91,3.69,4.54,3.71,1.51-.61,4.18-.05,4.28-3.06ZM110.67,218.34c2.27-.05,4.37-2.43,4.3-4.87-.07-2.09-2.15-3.55-5.08-3.35-2.09.14-4.38.35-4.48,3.23-.09,2.73,2.45,5.05,5.26,4.99ZM114.24,193.01c.81-1.74-2.16-4.48-4.38-4.55-2.71-.07-4.76,1.68-4.81,4.11-.04,1.91,2.17,3.76,5.58,3.78.85-.74,2.87-1.74,3.61-3.34ZM110.35,175.74c2.37-.08,3.31-1.46,3.37-3.33-.05-2.87-1.82-4.67-4.32-4.72-2.19-.03-4.15,1.74-4.19,3.8-.04,2.36,2.36,4.33,5.14,4.25ZM99.94,207.76c1.72,0,4.12-2.73,4.09-4.66-.04-1.86-2.37-3.69-4.79-3.5-2.09.16-4.33.56-4.62,3.22-.27,2.4,2.61,4.93,5.32,4.94ZM102.99,182.47c.05-2.81-1.23-4.27-3.76-4.31-2.97-.04-4.77,1.37-4.76,3.72.01,2.25,2.16,4.16,4.85,4.3,2.19.11,3.63-1.35,3.67-3.71ZM92.92,193.01c.05-2.51-1.54-3.85-4.57-3.87-2.52,0-4.26,1.26-4.31,3.14-.05,2.05,2.46,4.24,4.96,4.33,2.14.08,3.88-1.52,3.92-3.6Z"/>
  <path class="cls-2" d="M197.9,124.78c7.05,6.89,8.35,22.39-1.21,30.18-5.51,4.5-10.32,9.9-15.28,15.06-4.22,4.39-9.25,6.37-15.54,5.95-7.25,1.02-11.58-4.12-16.19-8.62-5.55-5.42-10.98-10.95-16.51-16.39-3.78-3.74-6.45-8.08-5.57-13.51.48-2.99,1.54-6.39,3.5-8.56,7.57-8.4,15.32-16.7,23.59-24.41,6.41-5.98,17.5-5.19,24.03,1.08,6.54,6.25,12.7,12.89,19.18,19.22ZM187.22,143.96c2.85-.06,4.44-1.41,4.4-3.73-.05-2.32-2.52-4.83-4.8-4.85-1.94-.02-4.3,2.27-4.34,4.2-.04,2.28,2.28,4.43,4.74,4.38ZM181.22,163.3c3.23-3.1,6.46-6.19,9.69-9.29-.04-.02-.07-.04-.1-.07-3.2,3.12-6.4,6.24-9.59,9.36-1.37,1.31-2.74,2.63-4.11,3.94-.02.04-.04.08-.05.12,1.39-1.35,2.77-2.71,4.16-4.06ZM176.88,154.84c1.82.02,4.44-2.62,4.42-4.46-.03-2.06-1.86-3.67-4.18-3.68-2.67,0-4.37,1.56-4.43,4.08-.06,2.17,1.86,4.03,4.19,4.06ZM176.72,132.74c2.37-.06,4.06-1.87,3.97-4.25-.09-2.12-2.3-3.9-4.81-3.87-2.26.03-4.33,2.01-4.23,4.07.1,2.11,2.6,4.11,5.07,4.05ZM170.9,140.09c.16-2.18-2.19-4.65-4.5-4.73-2.5-.08-4.72,1.89-4.83,4.31-.09,2.07,2.17,4.17,4.56,4.23,1.86.04,4.65-2.18,4.77-3.81ZM165.92,164.81c1.98.04,4.93-2.86,4.89-4.8-.05-2.24-1.91-3.87-4.37-3.84-3.06.05-4.54,1.34-4.48,3.9s1.84,4.69,3.96,4.74ZM170.49,117.76c.07-1.97-2.54-4.14-5.04-4.2-2.29-.07-4.27,1.99-4.28,4.43,0,2.21,2.26,4.28,4.81,4.4,2.11.1,4.42-2.28,4.51-4.63ZM155.89,154.68c1.95-.04,4.39-2.88,4.28-4.99-.1-2.11-2.08-3.66-4.04-3.66-3.13-.04-4.59,1.15-4.71,3.7-.13,2.72,1.98,5,4.47,4.95ZM159.97,128.62c.07-2.5-1.51-3.97-4.4-4.09-2.9-.12-4.96,1.66-4.95,4.28,0,2.26,2.32,4.05,5.3,4.09,2.12.03,3.98-1.94,4.05-4.28ZM150.11,139.73c.08-2.13-1.86-4.14-4.14-4.28-2.31-.14-5.15,1.98-5.29,3.95-.14,2.05,2.62,5.01,4.7,5.04,1.88.03,4.66-2.74,4.73-4.71Z"/>
  <path class="cls-2" d="M245.96,59.82c11.32,10.68,14.19,23.09,9.38,37.44-2.04,6.09-6.8,10.45-11.35,14.77-9.67,9.19-19.41,18.3-29.09,27.46-.99.93-1.85,2-3.28,3.57,0-3.76.15-6.76-.03-9.73-.37-6.14-3.78-10.81-7.87-15-5.92-6.05-12.06-11.87-17.93-17.97-5.9-6.12-13.19-8.1-21.71-7.95,3.35-3.47,6.54-6.8,9.75-10.1,7.07-7.28,14.1-14.61,21.24-21.82,11.27-11.35,32.71-17.84,50.89-.67ZM244.45,78.59c.09-2.98-1.39-4.85-3.89-4.93-2.21-.07-4.63,2.07-4.64,4.1-.02,2.06,2.17,3.59,5.24,3.69,2,.07,3.2-.74,3.29-2.86ZM244.07,98.08c.07-2.22-1.86-4.4-3.95-4.44-2.11-.05-4.85,2.44-4.91,4.46-.06,2.03,2.06,4.04,4.32,4.08,2.56.06,4.46-1.66,4.54-4.1ZM233.72,88.39c.46-2.56-1.99-4.92-4.09-4.84-2.8.12-4.36,1.65-4.28,4.22.06,2.23,1.99,4.05,5.36,4.04.72-.77,2.74-1.94,3.01-3.42ZM229.15,112.8c2.51.05,4.18-1.7,4.15-5.05-.06-1.63-1.06-3.03-3.58-3.03s-4.76,1.73-4.73,3.9c.03,2.26,1.89,4.13,4.16,4.18ZM233.84,68.22c-.24-2.07-.79-4.11-3.43-4.39-2.15-.22-4.58,1.96-4.54,3.85.05,2.09,2.28,4.36,4.29,4.15,2.03-.21,3.66-1.05,3.68-3.61ZM219.72,81.8c1.88-.04,4.19-2.3,4.08-4-.16-2.43-1.92-4.11-4.25-4.03-2.52.08-4.33,1.98-4.2,4.43.11,2.02,2.08,3.65,4.37,3.6ZM223.58,98.55c.65-1.89-1.74-3.84-4.17-3.89-2.65-.04-4.45,1.38-4.57,3.62-.11,2.1,2.97,5.08,5.31,4.36,1.46-.44,2.86-2.47,3.43-4.09ZM213.63,87.94c.02-2.44-1.84-4.15-4.43-4.07-2.37.06-4.73,2.16-4.63,4.1.1,1.89,2.65,3.88,4.95,3.87,1.92-.01,4.09-2.07,4.11-3.9ZM213.63,67.87c.04-2.4-1.63-3.78-4.35-3.74-2.68.04-3.25,1.99-3.49,4.02-.23,1.87,1.79,3.49,4.4,3.44,1.78-.32,3.39-1.24,3.44-3.72ZM212.98,107.81c.45-2.56-1.12-3.12-3.53-3.05-3.45.11-4.45.87-4.39,3.73.05,2.51,1.51,3.77,4.3,3.72,2.92-.06,3.65-.88,3.62-4.4ZM198.72,102.09c2.12.03,4.48-2.39,4.44-4.8-.04-2.4-1.63-3.21-4.54-3.17-2.3-.02-3.85,1.19-3.8,3.51.06,2.51,1.74,4.42,3.9,4.46ZM202.98,77.71c.01-2.27-1.74-3.78-4.42-3.81-2.33-.03-4.37,1.68-4.32,3.6.07,2.16,2.33,4.14,4.71,4.11,2.35-.03,4.03-1.65,4.03-3.9Z"/>
  <path class="cls-1" d="M191.65,277.03c.43,1.53-1.4,3.58-1.86,5.49-2.18,9.15-4.41,18.3-6.25,27.53-1,5.02-1.8,6.12-6.84,6.96-3.82.64-7.59.75-11.08-1-1.18-.59-2.46-2.15-2.62-3.41-1.9-14.9-4.23-24.01-9.8-36.72,9.14-4.12,14.44-11.84,19.92-19.8,3.32,6.74,8.76,11.79,14.15,16.87,1.48,1.4,3.91,2.44,4.38,4.08Z"/>
  <path class="cls-1" d="M167.87,233.14c.36,11.91-4.23,21.62-13.21,29.06-14.85,12.3-31.74,15.52-50.42,10.84-16.09-4.04-27.24-13.93-34.65-28.33-2.61-5.07-3.02-10.67-2.06-16.32.47-2.74.98-5.48,1.3-8.24.1-.9.07-1.63-.1-2.2l1.47-.9c4.09,6.84,9.16,12.79,16.47,16.61,13.43,7.03,27.18,9.46,40.95,1.55,4.65-2.67,8.49-6.88,12.37-10.72,8.99-8.88,17.77-17.97,26.63-26.98.28.1.57.21.85.32,0,2.61-.03,5.23,0,7.85.11,9.15.12,18.31.4,27.46Z"/>
  <path class="cls-1" d="M160.37,16.79c4.45,3.89,7.28,8.9,7.26,15.13-.03,13.94-.06,27.89-.02,41.83,0,2.36-.86,4.09-2.52,5.76-14.26,14.31-28.29,28.86-42.74,42.99-11.73,11.48-23.94,22.47-36.15,33.86-2.37-2.18-4.77-.87-7.25.19-11.84,5.09-23.24-.05-26.47-12.41-.88-3.37-.23-7.26.25-10.84.42-3.26.19-4.24-2.63-5.29-2.78-1.04-4.23.18-5.36,2.62-7.73,16.66,4.69,37.36,23.03,38.26,2.08.11,4.18.02,6.11.02-2.93,4.84-6.32,9.23-8.44,14.17-4.91,11.43-1.94,22.26,3.91,32.52.28.49.56.97.85,1.45l-1.47.9c-.42-1.4-1.69-1.81-3.87-1.39-3.71.72-7,1.74-7.02,6.54-.01,2.34-1.96,1.74-3.38,1.68-8.91-.37-16.6-3.83-23.43-9.35-11.45-9.24-19.18-20.81-20.86-35.64-1.26-11.09.2-21.77,8.38-30.29,3.29-3.43,3.25-6.62,1.54-10.79-7.05-17.2-.74-36.38,15.92-44.1,3.71-1.72,4.89-3.87,4.4-7.79-1.01-8.03.18-15.69,5.18-22.39,4.08-5.47,9.33-9.16,16.12-10.46,1.66-.32,3.32-.67,4.95-1.1,3.28-.87,3.36-1.68,3.18-5.16-.1-2.19.69-4.72,1.85-6.63,6.11-10.08,19.28-15.69,31.28-13.62.98.17,1.97.32,2.96.41,4.24.36,4.27-.02,5.92-4.04.97-2.37,2.82-4.56,4.74-6.32,11.4-10.47,32.17-10.88,43.78-.72ZM121.6,49.47c.07-3.16-3.58-6.6-7.14-6.71-2.24-.08-4.5,2.37-4.56,4.94-.07,3.53,2.58,6.66,5.73,6.77,3.05.1,5.91-2.3,5.97-5ZM110.2,126.07c.18-.67-.27-1.7-.75-2.3-.61-.75-1.54-1.24-2.35-1.83-9.29-6.86-13.56-16.23-13.16-27.6.29-8.34,4.32-15.17,10.27-21.07-2.85-5.67-6.37-6.29-10.47-1.94-1.49,1.58-2.85,3.34-3.98,5.19-9.64,15.95-6.59,34.2,5.22,47.51,1.89,2.12,4.23,3.94,6.61,5.51,3,1.97,7.72,0,8.61-3.47ZM64.09,110.56c1.03-1.94,1.14-3.83-.53-5.47-1.06-1.04-2.19-2.03-3.4-2.89-4.39-3.15-7.24-7.3-8.45-12.59-.33-1.45-.56-3.03-1.33-4.24-.71-1.11-2.08-1.79-3.15-2.67-.83,1.12-1.72,2.19-2.43,3.37-.27.46-.1,1.17-.17,2.43.32,2.51.45,5.73,1.17,8.81,1.71,7.4,6.59,12.07,13.61,14.56,1.72.61,3.59.75,4.68-1.31Z"/>
  <path class="cls-1" d="M325.58,149.71c7.85,6.19,12.31,23.66,8.35,39.08-4.81,18.69-23.26,33.86-41.94,35.59-.79-2.91-1.57-5.85-2.42-8.78-.82-2.89-4.83-5.08-7.56-4.03-.7.27-1.38,1.14-1.65,1.88-.84,2.34-1.49,4.75-2.2,7.13-.72,2.36-1.67,4.67,1.41,6.34.63.35.79,1.97.8,3.01.15,13.74-5.85,24.6-16.31,33.02-19.57,15.77-47.74,15.24-67.09,3.67-8.15-4.87-14.31-12.06-17.35-21.37-1.4-4.29-2.4-8.67.05-13.01.25-.45.12-1.15.06-1.73-.45-4.33-1.19-8.65-1.35-12.99-.32-8.95-.29-17.92-.53-26.87-.06-2.2.68-3.73,2.26-5.2,20.91-19.6,41.81-39.2,62.63-58.9,5.06-4.78,10-9.72,14.69-14.87,11.06-12.14,12.76-26.33,7.23-41.18-6.25-16.76-18.83-27.27-36.33-30.27-12.16-2.09-24.06.72-33.7,9.23-5.43,4.79-10.34,10.18-15.49,15.3-.32.32-.66.62-1.51,1.39v-4.06c.01-10.25-.11-20.51.11-30.76.05-2.23.87-4.74,2.11-6.6,13.53-20.35,39.1-17.57,51.58-5.52,1.48,1.43,2.69,3.18,3.84,4.9,1.81,2.7,4.03,4.16,7.47,3.82,6.7-.67,13.33-.54,19.48,2.86,7.36,4.07,13.09,9.4,14.53,18.18.45,2.69,1.88,4.11,4.7,4.52,11.66,1.67,21.55,12.02,22.66,24.01.43,4.51.16,9.11-.13,13.64-.18,2.86.58,4.72,2.92,6.56,3.36,2.63,6.23,5.89,9.26,8.83.57-.69,1.58-1.91,3.26-3.95,2.47,4.24,5.23,7.57,6.47,11.39,2.47,7.6,3.1,15.62-.15,23.11-2.77,6.37-3.3,12.46-.9,18.89.31.83.45,1.72,1.14,2.59-.13-2.9-.26-5.79-.4-8.85ZM306.08,144.52c.96-5.31.62-10.55-2.46-15.25-1.95-2.97-4.78-3.2-7.28-.84-1.94,1.81-1.07,3.82-.63,5.83,3.39,15.54-9.41,27.76-24.74,23.61-1.92-.52-3.79-1.2-5.66-1.85-3.04-1.06-4.93-.26-6.44,2.76-1.36,2.72.49,4.22,2.34,5.35,4.8,2.95,9.89,5.13,15.71,4.92,12.78-.5,26.43-9.35,29.16-24.53ZM295.86,107.13c4.76-4.63,7.18-10.76,7.12-17.23-.06-5.29-.6-10.98-5.45-15.23,1.81,11.56-1.58,20.77-10.27,28.02-.98.82-2.09,1.77-2.5,2.89-.46,1.25-.73,3.13-.09,4.08.64.97,2.75,1.87,3.75,1.51,2.64-.95,5.47-2.14,7.44-4.04ZM260.65,249.97c1.91-.73,2.42-1.6,2.55-3.04-6.18,3.45-12.34,6.89-19.32,10.79,2.59-1.01,4.46-1.6,6.21-2.45,3.54-1.73,6.9-3.91,10.56-5.3ZM251.06,198.77c1.52-11.08-6.95-25.27-18.08-30.16-1.33-.58-2.88-.97-4.31-.92-2.66.07-4.54,1.72-5.19,4.21-.64,2.47,1.33,3.71,3.17,4.79.59.35,1.27.57,1.91.83,8.58,3.42,11.97,10.24,12.58,19.15-.51,6.14-2.09,11.95-7.16,16.31-5.23,4.49-11.01,6.24-17.71,3.85-2.54-.91-4.2-.02-5.23,2.41-1.18,2.76-.71,4.73,1.99,6.37,3.71,2.26,7.83,2.86,12.09,2.19,13.6-2.14,23.83-13.63,25.94-29.03Z"/>
  <path d="M336.85,145.71c6.21,9.58,9.99,20.01,9.32,31.54-.93,15.95-7.37,29.61-18.7,40.83-7.51,7.42-15.91,13.58-26.46,16.08-2.7.64-5.49.89-8.17,1.59-.87.23-2,1.21-2.18,2.03-4.39,20.46-16.44,34.37-35.64,42.47-16.87,7.12-33.79,7.18-50.92,1.24-.27-.09-.58-.09-.96-.14-5.42,8.26-7.38,17.69-9.25,27.16-.26,1.27-.46,2.55-.64,3.83-1.32,9.49-1.56,11.58-13.62,14.93-5.53,1.54-11.24,1.09-16.82-.5-5.01-1.42-8.02-4.73-9.06-9.72-1.53-7.39-2.63-14.89-4.39-22.23-1.18-4.86-3.2-9.52-4.94-14.56-18.92,7.92-37.06,6.8-54.75-1.31-18.25-8.37-28.85-22.87-32.5-42.72-2.89-.41-5.96-.65-8.95-1.31-19.62-4.31-32.43-17.13-41.34-34.21-9.45-18.09-8.75-36.32,1.77-53.77,2.18-3.6,1.94-6.08.83-9.65-5.02-16.23.18-37.78,18.77-49.32,1.89-1.18,2.45-2.38,2.37-4.5-.38-10.81,2.67-20.49,10.21-28.41,4.53-4.76,10.14-7.95,16.44-9.92.99-.31,2.22-1.11,2.57-1.99,5.25-13.15,15.02-21.03,28.55-24.25,3.9-.94,8.08-.68,12.11-1.15,1.19-.14,2.66-.59,3.42-1.43C115.01,4.05,128.79-1.03,145.17.52c10.3.98,18.82,5.39,25.78,12.95.86.94,1.61,1.98,2.56,3.16,5.39-5.75,10.96-11,18.66-13.54,18.53-6.12,34.72-2.17,48.7,11.1,2.75,2.61,5.19,3.83,9.25,3.76,16.74-.29,28.07,8.51,35.44,22.92,1.34,2.61,2.78,4.24,5.66,5.3,14.87,5.51,24.81,20.9,24.03,37.04-.12,2.48.69,3.75,2.66,5.01,17.42,11.22,24.73,31.95,18.22,51.67-.73,2.21-.53,3.9.72,5.82ZM333.93,188.79c3.96-15.42-.5-32.89-8.35-39.08.14,3.06.27,5.95.4,8.85-.69-.87-.83-1.76-1.14-2.59-2.4-6.43-1.87-12.52.9-18.89,3.25-7.49,2.62-15.51.15-23.11-1.24-3.82-4-7.15-6.47-11.39-1.68,2.04-2.69,3.26-3.26,3.95-3.03-2.94-5.9-6.2-9.26-8.83-2.34-1.84-3.1-3.7-2.92-6.56.29-4.53.56-9.13.13-13.64-1.11-11.99-11-22.34-22.66-24.01-2.82-.41-4.25-1.83-4.7-4.52-1.44-8.78-7.17-14.11-14.53-18.18-6.15-3.4-12.78-3.53-19.48-2.86-3.44.34-5.66-1.12-7.47-3.82-1.15-1.72-2.36-3.47-3.84-4.9-12.48-12.05-38.05-14.83-51.58,5.52-1.24,1.86-2.06,4.37-2.11,6.6-.22,10.25-.1,20.51-.11,30.76v4.06c.85-.77,1.19-1.07,1.51-1.39,5.15-5.12,10.06-10.51,15.49-15.3,9.64-8.51,21.54-11.32,33.7-9.23,17.5,3,30.08,13.51,36.33,30.27,5.53,14.85,3.83,29.04-7.23,41.18-4.69,5.15-9.63,10.09-14.69,14.87-20.82,19.7-41.72,39.3-62.63,58.9-1.58,1.47-2.32,3-2.26,5.2.24,8.95.21,17.92.53,26.87.16,4.34.9,8.66,1.35,12.99.06.58.19,1.28-.06,1.73-2.45,4.34-1.45,8.72-.05,13.01,3.04,9.31,9.2,16.5,17.35,21.37,19.35,11.57,47.52,12.1,67.09-3.67,10.46-8.42,16.46-19.28,16.31-33.02-.01-1.04-.17-2.66-.8-3.01-3.08-1.67-2.13-3.98-1.41-6.34.71-2.38,1.36-4.79,2.2-7.13.27-.74.95-1.61,1.65-1.88,2.73-1.05,6.74,1.14,7.56,4.03.85,2.93,1.63,5.87,2.42,8.78,18.68-1.73,37.13-16.9,41.94-35.59ZM255.34,97.26c4.81-14.35,1.94-26.76-9.38-37.44-18.18-17.17-39.62-10.68-50.89.67-7.14,7.21-14.17,14.54-21.24,21.82-3.21,3.3-6.4,6.63-9.75,10.1,8.52-.15,15.81,1.83,21.71,7.95,5.87,6.1,12.01,11.92,17.93,17.97,4.09,4.19,7.5,8.86,7.87,15,.18,2.97.03,5.97.03,9.73,1.43-1.57,2.29-2.64,3.28-3.57,9.68-9.16,19.42-18.27,29.09-27.46,4.55-4.32,9.31-8.68,11.35-14.77ZM196.69,154.96c9.56-7.79,8.26-23.29,1.21-30.18-6.48-6.33-12.64-12.97-19.18-19.22-6.53-6.27-17.62-7.06-24.03-1.08-8.27,7.71-16.02,16.01-23.59,24.41-1.96,2.17-3.02,5.57-3.5,8.56-.88,5.43,1.79,9.77,5.57,13.51,5.53,5.44,10.96,10.97,16.51,16.39,4.61,4.5,8.94,9.64,16.19,8.62,6.29.42,11.32-1.56,15.54-5.95,4.96-5.16,9.77-10.56,15.28-15.06ZM189.79,282.52c.46-1.91,2.29-3.96,1.86-5.49-.47-1.64-2.9-2.68-4.38-4.08-5.39-5.08-10.83-10.13-14.15-16.87-5.48,7.96-10.78,15.68-19.92,19.8,5.57,12.71,7.9,21.82,9.8,36.72.16,1.26,1.44,2.82,2.62,3.41,3.49,1.75,7.26,1.64,11.08,1,5.04-.84,5.84-1.94,6.84-6.96,1.84-9.23,4.07-18.38,6.25-27.53ZM154.66,262.2c8.98-7.44,13.57-17.15,13.21-29.06-.28-9.15-.29-18.31-.4-27.46-.03-2.62,0-5.24,0-7.85-.28-.11-.57-.22-.85-.32-8.86,9.01-17.64,18.1-26.63,26.98-3.88,3.84-7.72,8.05-12.37,10.72-13.77,7.91-27.52,5.48-40.95-1.55-7.31-3.82-12.38-9.77-16.47-16.61-.29-.48-.57-.96-.85-1.45-5.85-10.26-8.82-21.09-3.91-32.52,2.12-4.94,5.51-9.33,8.44-14.17-1.93,0-4.03.09-6.11-.02-18.34-.9-30.76-21.6-23.03-38.26,1.13-2.44,2.58-3.66,5.36-2.62,2.82,1.05,3.05,2.03,2.63,5.29-.48,3.58-1.13,7.47-.25,10.84,3.23,12.36,14.63,17.5,26.47,12.41,2.48-1.06,4.88-2.37,7.25-.19,12.21-11.39,24.42-22.38,36.15-33.86,14.45-14.13,28.48-28.68,42.74-42.99,1.66-1.67,2.53-3.4,2.52-5.76-.04-13.94-.01-27.89.02-41.83.02-6.23-2.81-11.24-7.26-15.13-11.61-10.16-32.38-9.75-43.78.72-1.92,1.76-3.77,3.95-4.74,6.32-1.65,4.02-1.68,4.4-5.92,4.04-.99-.09-1.98-.24-2.96-.41-12-2.07-25.17,3.54-31.28,13.62-1.16,1.91-1.95,4.44-1.85,6.63.18,3.48.1,4.29-3.18,5.16-1.63.43-3.29.78-4.95,1.1-6.79,1.3-12.04,4.99-16.12,10.46-5,6.7-6.19,14.36-5.18,22.39.49,3.92-.69,6.07-4.4,7.79-16.66,7.72-22.97,26.9-15.92,44.1,1.71,4.17,1.75,7.36-1.54,10.79-8.18,8.52-9.64,19.2-8.38,30.29,1.68,14.83,9.41,26.4,20.86,35.64,6.83,5.52,14.52,8.98,23.43,9.35,1.42.06,3.37.66,3.38-1.68.02-4.8,3.31-5.82,7.02-6.54,2.18-.42,3.45,0,3.87,1.39.17.57.2,1.3.1,2.2-.32,2.76-.83,5.5-1.3,8.24-.96,5.65-.55,11.25,2.06,16.32,7.41,14.4,18.56,24.29,34.65,28.33,18.68,4.68,35.57,1.46,50.42-10.84ZM164.17,184.64c-5.69.54-12.36-.9-17.69-6.77-6.29-6.92-12.85-13.6-19.28-20.38-5.31-5.6-8-12.03-6.39-19.87.11-.56-.08-1.19-.13-1.79-.25-.15-.51-.3-.77-.45-9.05,9.23-18.12,18.44-27.14,27.71-5.2,5.35-10.54,10.58-15.37,16.25-4.65,5.45-5.6,12.11-4.58,19.12,1.17,7.97,5.42,14.21,10.91,19.75,11.58,11.7,32.46,19.14,48.51.67,4.75-5.47,10.16-10.38,15.11-15.69,5.96-6.4,11.76-12.96,16.82-18.55Z"/>
  <path d="M303.62,129.27c3.08,4.7,3.42,9.94,2.46,15.25-2.73,15.18-16.38,24.03-29.16,24.53-5.82.21-10.91-1.97-15.71-4.92-1.85-1.13-3.7-2.63-2.34-5.35,1.51-3.02,3.4-3.82,6.44-2.76,1.87.65,3.74,1.33,5.66,1.85,15.33,4.15,28.13-8.07,24.74-23.61-.44-2.01-1.31-4.02.63-5.83,2.5-2.36,5.33-2.13,7.28.84Z"/>
  <path d="M302.98,89.9c.06,6.47-2.36,12.6-7.12,17.23-1.97,1.9-4.8,3.09-7.44,4.04-1,.36-3.11-.54-3.75-1.51-.64-.95-.37-2.83.09-4.08.41-1.12,1.52-2.07,2.5-2.89,8.69-7.25,12.08-16.46,10.27-28.02,4.85,4.25,5.39,9.94,5.45,15.23Z"/>
  <path d="M263.2,246.93c-.13,1.44-.64,2.31-2.55,3.04-3.66,1.39-7.02,3.57-10.56,5.3-1.75.85-3.62,1.44-6.21,2.45,6.98-3.9,13.14-7.34,19.32-10.79Z"/>
  <path d="M232.98,168.61c11.13,4.89,19.6,19.08,18.08,30.16-2.11,15.4-12.34,26.89-25.94,29.03-4.26.67-8.38.07-12.09-2.19-2.7-1.64-3.17-3.61-1.99-6.37,1.03-2.43,2.69-3.32,5.23-2.41,6.7,2.39,12.48.64,17.71-3.85,5.07-4.36,6.65-10.17,7.16-16.31-.61-8.91-4-15.73-12.58-19.15-.64-.26-1.32-.48-1.91-.83-1.84-1.08-3.81-2.32-3.17-4.79.65-2.49,2.53-4.14,5.19-4.21,1.43-.05,2.98.34,4.31.92Z"/>
  <path d="M240.56,73.66c2.5.08,3.98,1.95,3.89,4.93-.09,2.12-1.29,2.93-3.29,2.86-3.07-.1-5.26-1.63-5.24-3.69,0-2.03,2.43-4.17,4.64-4.1Z"/>
  <path d="M240.12,93.64c2.09.04,4.02,2.22,3.95,4.44-.08,2.44-1.98,4.16-4.54,4.1-2.26-.04-4.38-2.05-4.32-4.08.06-2.02,2.8-4.51,4.91-4.46Z"/>
  <path d="M229.63,83.55c2.1-.08,4.55,2.28,4.09,4.84-.27,1.48-2.29,2.65-3.01,3.42-3.37.01-5.3-1.81-5.36-4.04-.08-2.57,1.48-4.1,4.28-4.22Z"/>
  <path d="M233.3,107.75c.03,3.35-1.64,5.1-4.15,5.05-2.27-.05-4.13-1.92-4.16-4.18-.03-2.17,2.1-3.9,4.73-3.9s3.52,1.4,3.58,3.03Z"/>
  <path d="M230.41,63.83c2.64.28,3.19,2.32,3.43,4.39-.02,2.56-1.65,3.4-3.68,3.61-2.01.21-4.24-2.06-4.29-4.15-.04-1.89,2.39-4.07,4.54-3.85Z"/>
  <path d="M223.8,77.8c.11,1.7-2.2,3.96-4.08,4-2.29.05-4.26-1.58-4.37-3.6-.13-2.45,1.68-4.35,4.2-4.43,2.33-.08,4.09,1.6,4.25,4.03Z"/>
  <path d="M219.41,94.66c2.43.05,4.82,2,4.17,3.89-.57,1.62-1.97,3.65-3.43,4.09-2.34.72-5.42-2.26-5.31-4.36.12-2.24,1.92-3.66,4.57-3.62Z"/>
  <path d="M209.2,83.87c2.59-.08,4.45,1.63,4.43,4.07-.02,1.83-2.19,3.89-4.11,3.9-2.3,0-4.85-1.98-4.95-3.87-.1-1.94,2.26-4.04,4.63-4.1Z"/>
  <path d="M209.28,64.13c2.72-.04,4.39,1.34,4.35,3.74-.05,2.48-1.66,3.4-3.44,3.72-2.61.05-4.63-1.57-4.4-3.44.24-2.03.81-3.98,3.49-4.02Z"/>
  <path d="M209.45,104.76c2.41-.07,3.98.49,3.53,3.05.03,3.52-.7,4.34-3.62,4.4-2.79.05-4.25-1.21-4.3-3.72-.06-2.86.94-3.62,4.39-3.73Z"/>
  <path d="M203.16,97.29c.04,2.41-2.32,4.83-4.44,4.8-2.16-.04-3.84-1.95-3.9-4.46-.05-2.32,1.5-3.53,3.8-3.51,2.91-.04,4.5.77,4.54,3.17Z"/>
  <path d="M198.56,73.9c2.68.03,4.43,1.54,4.42,3.81,0,2.25-1.68,3.87-4.03,3.9-2.38.03-4.64-1.95-4.71-4.11-.05-1.92,1.99-3.63,4.32-3.6Z"/>
  <path d="M191.62,140.23c.04,2.32-1.55,3.67-4.4,3.73-2.46.05-4.78-2.1-4.74-4.38.04-1.93,2.4-4.22,4.34-4.2,2.28.02,4.75,2.53,4.8,4.85Z"/>
  <path d="M190.91,154.01c-3.23,3.1-6.46,6.19-9.69,9.29,3.19-3.12,6.39-6.24,9.59-9.36.03.03.06.05.1.07Z"/>
  <path d="M181.3,150.38c.02,1.84-2.6,4.48-4.42,4.46-2.33-.03-4.25-1.89-4.19-4.06.06-2.52,1.76-4.08,4.43-4.08,2.32.01,4.15,1.62,4.18,3.68Z"/>
  <path d="M181.22,163.3c-1.39,1.35-2.77,2.71-4.16,4.06.01-.04.03-.08.05-.12,1.37-1.31,2.74-2.63,4.11-3.94Z"/>
  <path d="M180.69,128.49c.09,2.38-1.6,4.19-3.97,4.25-2.47.06-4.97-1.94-5.07-4.05-.1-2.06,1.97-4.04,4.23-4.07,2.51-.03,4.72,1.75,4.81,3.87Z"/>
  <path d="M166.4,135.36c2.31.08,4.66,2.55,4.5,4.73-.12,1.63-2.91,3.85-4.77,3.81-2.39-.06-4.65-2.16-4.56-4.23.11-2.42,2.33-4.39,4.83-4.31Z"/>
  <path d="M170.81,160.01c.04,1.94-2.91,4.84-4.89,4.8-2.12-.05-3.9-2.18-3.96-4.74s1.42-3.85,4.48-3.9c2.46-.03,4.32,1.6,4.37,3.84Z"/>
  <path d="M165.45,113.56c2.5.06,5.11,2.23,5.04,4.2-.09,2.35-2.4,4.73-4.51,4.63-2.55-.12-4.81-2.19-4.81-4.4.01-2.44,1.99-4.5,4.28-4.43Z"/>
  <path d="M160.17,149.69c.11,2.11-2.33,4.95-4.28,4.99-2.49.05-4.6-2.23-4.47-4.95.12-2.55,1.58-3.74,4.71-3.7,1.96,0,3.94,1.55,4.04,3.66Z"/>
  <path d="M155.57,124.53c2.89.12,4.47,1.59,4.4,4.09-.07,2.34-1.93,4.31-4.05,4.28-2.98-.04-5.3-1.83-5.3-4.09,0-2.62,2.05-4.4,4.95-4.28Z"/>
  <path d="M145.97,135.45c2.28.14,4.22,2.15,4.14,4.28-.07,1.97-2.85,4.74-4.73,4.71-2.08-.03-4.84-2.99-4.7-5.04.14-1.97,2.98-4.09,5.29-3.95Z"/>
  <path d="M130.11,189.38c2.38.08,5.05,2.43,4.81,4.45-.32,2.56-2.1,3.41-4.12,3.33-3.04,0-4.47-1.38-4.45-3.97.01-2.1,1.76-3.87,3.76-3.81Z"/>
  <path d="M133.01,172.99c.06,2.05-1.07,3.16-3.07,3.22-1.97.07-3.15-1.27-2.89-2.97.2-1.29,1.48-2.43,2.28-3.63,2.79.36,3.63,1.53,3.68,3.38Z"/>
  <path d="M125.21,203.53c.11,2.07-2.14,4.33-4.37,4.4-2.69.08-4.72-1.79-4.71-4.62,0-2.58,2.04-3.07,3.66-3.44,2.96-.07,5.31,1.65,5.42,3.66Z"/>
  <path d="M119.93,178.35c2.42.01,4.78,2.31,4.69,4.82-.1,3.01-2.77,2.45-4.28,3.06-2.63-.02-4.48-1.63-4.54-3.71-.06-2.23,1.85-4.17,4.13-4.17Z"/>
  <path d="M114.46,42.76c3.56.11,7.21,3.55,7.14,6.71-.06,2.7-2.92,5.1-5.97,5-3.15-.11-5.8-3.24-5.73-6.77.06-2.57,2.32-5.02,4.56-4.94Z"/>
  <path d="M114.97,213.47c.07,2.44-2.03,4.82-4.3,4.87-2.81.06-5.35-2.26-5.26-4.99.1-2.88,2.39-3.09,4.48-3.23,2.93-.2,5.01,1.26,5.08,3.35Z"/>
  <path d="M109.86,188.46c2.22.07,5.19,2.81,4.38,4.55-.74,1.6-2.76,2.6-3.61,3.34-3.41-.02-5.62-1.87-5.58-3.78.05-2.43,2.1-4.18,4.81-4.11Z"/>
  <path d="M113.72,172.41c-.06,1.87-1,3.25-3.37,3.33-2.78.08-5.18-1.89-5.14-4.25.04-2.06,2-3.83,4.19-3.8,2.5.05,4.27,1.85,4.32,4.72Z"/>
  <path d="M109.45,123.77c.48.6.93,1.63.75,2.3-.89,3.47-5.61,5.44-8.61,3.47-2.38-1.57-4.72-3.39-6.61-5.51-11.81-13.31-14.86-31.56-5.22-47.51,1.13-1.85,2.49-3.61,3.98-5.19,4.1-4.35,7.62-3.73,10.47,1.94-5.95,5.9-9.98,12.73-10.27,21.07-.4,11.37,3.87,20.74,13.16,27.6.81.59,1.74,1.08,2.35,1.83Z"/>
  <path d="M104.03,203.1c.03,1.93-2.37,4.67-4.09,4.66-2.71-.01-5.59-2.54-5.32-4.94.29-2.66,2.53-3.06,4.62-3.22,2.42-.19,4.75,1.64,4.79,3.5Z"/>
  <path d="M99.23,178.16c2.53.04,3.81,1.5,3.76,4.31-.04,2.36-1.48,3.82-3.67,3.71-2.69-.14-4.84-2.05-4.85-4.3-.01-2.35,1.79-3.76,4.76-3.72Z"/>
  <path d="M88.35,189.14c3.03.02,4.62,1.36,4.57,3.87-.04,2.08-1.78,3.68-3.92,3.6-2.5-.09-5.01-2.28-4.96-4.33.05-1.88,1.79-3.15,4.31-3.14Z"/>
  <path d="M63.56,105.09c1.67,1.64,1.56,3.53.53,5.47-1.09,2.06-2.96,1.92-4.68,1.31-7.02-2.49-11.9-7.16-13.61-14.56-.72-3.08-.85-6.3-1.17-8.81.07-1.26-.1-1.97.17-2.43.71-1.18,1.6-2.25,2.43-3.37,1.07.88,2.44,1.56,3.15,2.67.77,1.21,1,2.79,1.33,4.24,1.21,5.29,4.06,9.44,8.45,12.59,1.21.86,2.34,1.85,3.4,2.89Z"/>
</svg>